<?xml version="1.0" encoding="UTF-8"?>
<svg width="430px" height="330px" viewBox="0 0 430 330" version="1.1" xmlns="http://www.w3.org/2000/svg" xmlns:xlink="http://www.w3.org/1999/xlink">
    <title>Illustration</title>
    <g id="Illustration" stroke="none" stroke-width="1" fill="none" fill-rule="evenodd">
        <g id="Group-(9)" transform="translate(0.000000, 66.000000)" fill-rule="nonzero">
            <g id="Group" opacity="0.5" fill="#E9EDF1">
                <path d="M212.028515,250.870668 C203.652459,250.516202 195.670232,246.521279 190.396775,239.623569 C183.192599,230.206279 182.549026,217.340134 188.773434,207.252233 L233.871578,134.126927 L80.4613323,204.157844 C68.6656942,209.541889 54.7184088,206.370859 46.4288032,196.42666 C38.1391977,186.482462 37.5628636,172.227195 45.0263903,161.650706 L113.6771,64.3256477 L31.9724227,73.6375561 C16.2192905,75.4290447 1.98381884,64.153205 0.187577541,48.4321744 C-1.60866376,32.720724 9.69710951,18.5229378 25.4598473,16.7314492 L170.695754,0.186499706 C181.934269,-1.09724363 192.875012,4.32512279 198.638353,14.020266 C204.411299,23.7153805 203.940626,35.8917546 197.428051,45.1174416 L153.040719,108.040172 L295.865916,42.8373653 C307.363782,37.5874416 320.946056,40.4614874 329.322111,49.8979378 C337.698167,59.3439683 338.898863,73.1393882 332.271021,83.8787393 L276.712413,173.951622 L376.677564,144.866279 C391.90239,140.440248 407.838028,149.158187 412.2758,164.333149 C416.713573,179.517691 407.972506,195.411164 392.757285,199.837195 L221.249861,249.74021 C218.214501,250.631164 215.092691,250.99521 212.028515,250.870668 Z" id="Path"></path>
            </g>
            <path d="M371.176537,140.03552 C375.527241,112.937169 362.599985,74.2345116 333.297563,92.9118228 C303.995141,111.589421 308.067323,156.370999 320.072576,174.513034 C326.910768,184.845774 361.120937,202.634144 371.176537,140.03552 Z M336.745472,164.572193 C317.296962,155.548968 333.307167,105.978581 345.091524,105.978581 C364.386366,105.978581 357.788279,174.340981 336.745472,164.572193 Z" id="Shape" fill="#9CDF9B"></path>
            <path d="M347.249173,97.1378161 C345.74766,97.2723555 344.265521,97.637534 342.870567,98.2045217 C341.465925,98.7426795 340.100033,99.3961568 338.811637,100.174564 C336.215473,101.712157 333.929298,103.711029 331.914364,105.92132 C327.894184,110.380342 324.988029,115.7427 322.99247,121.345306 C322.023751,124.161025 321.268151,127.053623 320.725669,129.994271 C320.202561,132.934919 319.892571,135.914007 319.737577,138.893094 C319.456648,144.87049 319.834448,150.886325 320.754731,156.815671 L320.745043,156.767621 C321.830008,159.150891 323.002157,161.505331 324.358362,163.744452 C325.743629,165.964353 327.303265,168.097764 329.114768,169.981316 C330.916584,171.874479 333.047764,173.479342 335.459873,174.459558 C337.852606,175.468604 340.55533,175.699243 343.06431,175.113035 C344.323644,174.815126 345.534542,174.334628 346.677629,173.738811 C347.811029,173.114163 348.876619,172.364587 349.874399,171.53813 C351.850584,169.856387 353.526467,167.847905 354.931108,165.666444 C357.711329,161.284302 359.551894,156.325563 360.937161,151.309163 C362.283679,146.273544 363.1749,141.112995 363.630197,135.904397 C363.86269,133.300097 363.988623,130.695798 364.037059,128.081889 C364.104869,125.46798 364.027372,122.87329 363.717382,120.278601 C363.087715,115.118052 361.944628,109.938283 359.551894,105.277453 C358.331309,102.990282 356.800734,100.779991 354.659867,99.2327875 C352.557748,97.6951938 349.884086,96.9456169 347.249173,97.1378161 Z M347.239486,97.0417165 C349.884086,96.8110774 352.615871,97.5414344 354.766426,99.1174679 C356.936355,100.674282 358.563801,102.846133 359.861883,105.133303 C362.399925,109.784524 363.785192,114.983513 364.521418,120.201721 C365.257644,125.45837 365.025151,130.763068 364.61829,136.010106 C364.405172,138.633625 364.06612,141.257145 363.62051,143.861444 C363.1749,146.465743 362.632417,149.050822 361.905879,151.587852 C360.462489,156.661911 358.563801,161.659091 355.667334,166.156552 C354.194882,168.376453 352.422128,170.413765 350.349071,172.124338 C349.302855,172.960404 348.188829,173.719591 346.997306,174.344238 C345.796096,174.949666 344.517388,175.430164 343.199931,175.718463 C340.55533,176.28545 337.726673,175.987542 335.275816,174.901616 C334.02617,174.401898 332.902457,173.652321 331.817492,172.893134 C330.771277,172.066678 329.76381,171.192171 328.862902,170.231175 C325.210834,166.367971 322.643731,161.678311 320.415679,156.92138 L320.405992,156.90216 L320.405992,156.87333 C319.446961,150.934375 318.856043,144.90893 319.030412,138.873874 C319.195094,132.848429 320.134751,126.784544 322.217495,121.076228 C324.280865,115.387131 327.419512,110.034383 331.614061,105.642631 C333.706493,103.45156 336.099227,101.539178 338.724453,100.011194 C340.032222,99.2423974 341.407802,98.5985301 342.831818,98.0699823 C344.226772,97.5126045 345.728285,97.157036 347.239486,97.0417165 Z" id="Shape" fill="#58B756"></path>
            <path d="M299.457019,77.0865606 C292.980486,75.4561196 275.115496,97.2466755 268.676893,109.714753 C263.489977,119.765943 259.241827,132.013431 264.210646,143.186748 C268.743271,153.372208 280.492062,157.103041 290.505559,158.94448 C296.185564,159.98988 301.941429,160.411877 307.678328,160.977736 C312.58077,161.457277 317.86251,162.742448 322.717539,161.418914 C331.412972,159.049979 325.097642,150.197644 319.35126,148.049298 C314.316063,146.169495 308.607611,145.642 303.373283,144.587009 C297.721726,143.4457 278.339539,139.954638 280.273965,130.450126 C282.748892,118.241001 311.935961,80.2323525 299.457019,77.0865606 Z" id="Path" fill="#267F24"></path>
            <path d="M413.066923,161.295983 C400.197646,165.493559 365.953095,162.682338 361.628174,144.399776 C357.303253,126.117214 376.166046,79 391.979338,79 C402.729307,79 374.123456,120.311851 374.363196,133.000854 C374.737192,152.621634 403.458119,145.044816 413.066923,149.877805 C422.666138,154.701167 415.771198,160.410256 413.066923,161.295983 Z" id="Path" fill="#58B756"></path>
            <path d="M52,211 C52,211 88.5228954,177.753472 114.016644,184.769689 C139.510681,191.785907 158.237664,188.858417 192.591262,176.875225 C226.944861,164.892032 252.179734,193.113036 256,211 L52,211 Z" id="Path" fill="#267F24"></path>
            <path d="M96.5304394,207 C96.5304394,207 9.28210034,52.3301836 61.8418625,22.9447509 C92.1578596,12.9989121 91.8732914,83.2546243 101.187872,154.875725 C110,205.287854 110,205.287854 110,205.287854 L96.5304394,207 Z" id="Path" fill="#9CDF9B"></path>
            <path d="M61.1157141,24 C62.8899971,39.4857865 65.0499938,54.9140763 67.3739187,70.3136177 C67.9332036,74.1658987 68.5117741,78.0181798 69.1192732,81.8704608 L70.0546289,87.6392996 L71.086413,93.3889728 C72.4846251,101.055491 74.1528369,108.673808 75.9464055,116.253794 C77.7785456,123.824197 79.7263997,131.365852 81.7610394,138.888341 C82.8121092,142.635211 83.8438933,146.391664 84.9817487,150.119369 C86.0713899,153.856657 87.2381738,157.574779 88.3856721,161.292901 C89.610313,164.991857 90.7963826,168.700396 92.0885235,172.370605 C93.3228073,176.069561 94.6920909,179.711021 96.0321567,183.362063 C98.8092953,190.6354 101.779291,197.841657 105,204.952086 L104.893929,205 C101.33572,198.052478 98.1150106,190.932466 95.1645902,183.697461 C92.2717375,176.44329 89.6199559,169.093291 87.2092453,161.66663 C82.4263955,146.794142 78.5403301,131.662918 75.3099779,116.397536 C73.6996233,108.769636 72.2049827,101.112988 70.6814136,93.4656351 C69.2060588,85.808987 67.6921325,78.1619216 66.3999917,70.4669423 L65.4839217,64.6885207 C65.1753507,62.7623802 64.8860654,60.8362397 64.6353515,58.9005164 C64.1049952,55.0386525 63.6132103,51.1672059 63.1310681,47.2957593 C62.224641,39.552866 61.4435707,31.7908072 61,24 L61.1157141,24 Z" id="Path" fill="#58B756"></path>
            <path d="M152,198.530193 C152,198.530193 222.677547,138.093697 241.906708,161.309508 C249.594509,175.353044 215.395384,181.732076 181.43771,192.972703 C157.746535,202 157.746535,202 157.746535,202 L152,198.530193 Z" id="Path" fill="#9CDF9B"></path>
            <path d="M242,161.116588 L218.891809,168.918246 C215.027595,170.18128 211.153745,171.424882 207.34735,172.853081 C203.540955,174.28128 199.802015,175.88436 196.101621,177.584597 C188.729742,181.014218 181.415681,184.570142 174.352168,188.553555 C170.805957,190.516114 167.298292,192.575829 163.9159,194.810427 C160.523872,197.025592 157.218572,199.396209 154.077092,202 L154,201.912559 C156.881297,199.007583 160.080596,196.423223 163.395532,194.033175 C165.053,192.828436 166.768287,191.720853 168.473938,190.593839 C170.208498,189.505687 171.952694,188.446682 173.735436,187.436256 C177.291283,185.425118 180.933859,183.569431 184.624617,181.840047 C188.315375,180.091232 192.054314,178.46872 195.851073,176.982227 L207.21244,172.493602 C210.989926,170.987678 214.757775,169.413744 218.56417,167.975829 C222.380201,166.557346 226.254052,165.304028 230.156811,164.128436 C234.059571,162.972275 237.981603,161.874408 241.961454,161 L242,161.116588 Z" id="Path" fill="#58B756"></path>
            <path d="M144,200.726545 C144,200.726545 205.099846,72.7776965 246.25419,93.2104315 C265.644586,108.013249 221.944414,138.068711 181.584444,174.759545 C154.164166,202 154.164166,202 154.164166,202 L144,200.726545 Z" id="Path" fill="#9CDF9B"></path>
            <path d="M247,93.076294 C238.179419,100.906347 229.521651,108.907681 220.902191,116.947161 C218.728171,118.940342 216.573306,120.943059 214.428018,122.96485 L211.219664,126.007074 L208.059195,129.106517 C203.893123,133.274077 199.861131,137.575151 195.934488,141.971593 C192.026999,146.377572 188.176974,150.840771 184.374834,155.33258 C180.591849,159.843463 176.914213,164.440176 173.29404,169.0655 C169.702598,173.719434 166.168619,178.421052 162.787876,183.237111 C159.426286,188.062706 156.198777,192.983669 153.105349,198 L153,197.942779 C155.74865,192.726177 158.794193,187.6717 162.012124,182.722126 C165.277942,177.801163 168.706572,172.994641 172.288436,168.293023 C179.528782,158.966082 187.286296,150.049221 195.455629,141.532903 C199.545084,137.279512 203.663271,133.064269 207.791034,128.839488 C211.909221,124.614708 216.008253,120.370854 220.222211,116.241441 C224.455323,112.121565 228.812939,108.144741 233.25675,104.263283 C237.710138,100.391363 242.230565,96.5861995 246.923383,93 L247,93.076294 Z" id="Path" fill="#58B756"></path>
            <path d="M140.137205,53.351216 C139.08881,50.4322364 136.953897,48.177975 133.494193,48.0142038 C123.238984,47.5421576 111.001354,58.9290681 107.932416,68.2832898 C105.87375,74.5547608 105.263774,81.3271787 100.57459,86.3655494 C94.0652955,93.3595401 83.3907281,97.5310799 80.5409998,107.463317 C78.5299876,114.457308 82.6759133,120.670977 84.0102342,127.289258 C85.6018885,135.179173 83.2191725,143.252126 82.3995182,151.267278 C81.5703331,159.272797 82.9618392,168.598117 89.623913,173.010304 C96.0095917,177.249087 105.835626,174.407176 109.037997,167.403552 C112.640663,159.542537 108.437552,149.282757 111.658984,141.710751 C112.05928,140.785926 112.564416,139.890001 113.212515,139.051879 C116.052712,135.371845 120.942045,133.763034 123.734588,130.0541 C130.882736,120.536107 121.247033,108.031699 122.20965,97.7237518 C122.743379,91.9337679 126.460416,88.0899631 129.891526,83.7548449 C135.56239,76.5681823 143.673155,63.1485831 140.137205,53.351216 Z" id="Path" fill="#58B756"></path>
            <path d="M92.7846941,162.41873 C91.5280556,155.771812 93.7919235,147.467953 89.139483,141.989514 C85.1393434,137.277289 78.4052954,136.999536 73.7912254,133.20677 C68.8893757,129.18414 67.862961,122.144536 63.4407442,117.69091 C59.3159,113.524614 51.2388795,110.488486 45.5504315,112.796709 C39.708501,115.162399 38.7684202,122.882019 41.377624,127.948618 C44.5527948,134.116651 50.8168024,137.641242 54.5099769,143.378279 C59.1816028,150.638169 54.1934191,159.823175 58.183966,167.159687 C61.1768763,172.66686 68.0739995,172.829681 73.0525905,175.482701 C79.067189,178.68165 80.678756,189.992904 88.8037398,188.92978 C100.880612,187.349461 94.4538172,169.831863 92.9093987,163.060435 C92.8710281,162.840148 92.8230648,162.629439 92.7846941,162.41873 Z" id="Path" fill="#80D37E"></path>
            <path d="M157.278532,101.517075 C159.21491,102.892521 162.531675,105.501123 162.531675,105.501123 C159.607937,103.670359 157.479839,102.067253 156.166553,101.336845 C155.121676,100.748723 154.163073,101.877537 155.600978,102.968407 C157.230602,104.192079 161.055427,107.208573 161.055427,107.208573 C158.304237,105.558038 157.000538,104.505111 155.313397,103.528071 C154.383552,102.987379 153.434535,103.736759 154.41231,104.7138 C156.780059,106.648909 159.857174,108.963451 161.707277,110.528613 C161.707277,110.528613 161.707277,110.528613 159.473733,110.699358 C157.824936,110.822673 157.086812,110.983932 157.355221,111.609997 C157.690732,112.397321 160.863707,112.776754 160.863707,112.776754 C161.160874,112.843155 161.45804,112.890584 161.755207,112.928527 C164.746048,113.270017 168.139501,114.683406 170.277186,116.779774 C183.553834,129.775359 188.519396,137.00356 187.100664,140.143369 C185.624415,143.425466 169.462373,136.529269 158.361754,133.38946 L156.760887,146.660134 C171.216616,151.146931 188.806977,154.267768 194.472319,149.904287 C196.677105,148.206324 197.990391,145.588235 198,142.818373 C198.009563,137.923686 195.037894,132.810824 190.542048,126.626064 C187.819616,122.869676 184.694571,119.407348 181.272359,116.258053 L176.364313,111.742799 C167.717716,104.286937 161.563487,100.293404 160.796604,100.132144 C159.86676,99.6863105 159.195738,100.454663 159.981792,101.156614 C162.119476,102.570002 163.921649,104.059277 163.921649,104.059277 C162.61795,103.101209 159.061534,100.919468 157.987898,100.331347 C157.038882,99.8001404 156.434962,100.881525 157.278532,101.517075 Z" id="Path" fill="#F9DFCD"></path>
            <path d="M146.253929,102 C153.911335,105.753444 157.153915,115.161302 153.495377,123.027047 C149.836839,130.883094 140.666859,134.20979 133,130.456345 L133,111.660027 L146.253929,102 Z" id="Path" fill="#774D44"></path>
            <path d="M150.998787,99.9852814 C150.998787,99.9852814 141.374676,97.7922066 136.207633,93 C136.207633,93 135.408911,96.8164332 131.671679,99.9852814 C130.695463,103.192774 127.007535,105.90755 127.007535,105.90755 L124,111.298456 L127.007535,117.626491 L127.480852,131.084435 C127.480852,131.084435 130.429222,136.398052 142.469222,132.67852 L141.631056,123.490793 C142.222702,123.597065 142.843931,123.664693 143.494742,123.664693 C151.274889,123.664693 150.998787,99.9852814 150.998787,99.9852814 Z" id="Path" fill="#F9DFCD"></path>
            <path d="M146.55292,114.585034 C146.105839,114.012751 145.175182,114.749929 145.175182,114.749929 C145.175182,114.749929 144.764599,113.585963 143.423358,114.158247 C142.967153,114.352241 142.492701,114.497737 142,114.536536 C142,114.536536 142.656934,116.554077 144.5,116.951765 C146.343066,117.349453 147,115.157318 147,115.157318 C147,115.157318 147,115.147618 146.55292,114.585034 Z" id="Path" fill="#E54582"></path>
            <path d="M145.723214,104 C145.910714,104.709265 146.0625,105.428115 146.196429,106.146965 C146.330357,106.865815 146.4375,107.584665 146.544643,108.313099 C146.633929,109.041534 146.732143,109.760383 146.803571,110.488818 C146.883929,111.217252 146.9375,111.945687 146.982143,112.674121 L147,113 L146.723214,113 C145.8125,113 144.910714,112.961661 144,112.85623 C144.892857,112.654952 145.794643,112.520767 146.696429,112.415335 L146.4375,112.741214 C146.321429,112.022364 146.205357,111.29393 146.125,110.57508 C146.026786,109.846645 145.964286,109.118211 145.892857,108.399361 C145.830357,107.670927 145.776786,106.942492 145.75,106.204473 C145.714286,105.476038 145.705357,104.738019 145.723214,104 Z" id="Path" fill="#1D1D1B"></path>
            <path d="M142,103.944834 C141.410296,103.902287 140.895476,103.876759 140.390016,103.893777 C139.884555,103.910796 139.397816,103.961853 138.911076,104.046947 C138.433697,104.132041 137.956318,104.251172 137.478939,104.404342 C137.00156,104.557511 136.533541,104.761737 136,105 C136.187207,104.480926 136.580343,104.046947 137.057722,103.723589 C137.535101,103.400232 138.106084,103.170478 138.695788,103.068365 C139.285491,102.966252 139.903276,102.974762 140.483619,103.119422 C141.073323,103.264081 141.616225,103.527873 142,103.944834 Z" id="Path" fill="#141414"></path>
            <path d="M151,103.678648 C150.58952,103.678648 150.248908,103.678648 149.917031,103.69125 C149.593886,103.697551 149.28821,103.716454 148.982533,103.741658 C148.676856,103.766862 148.371179,103.798367 148.056769,103.842475 C147.733624,103.886582 147.401747,103.93699 147,104 C147.113537,103.710153 147.401747,103.477016 147.733624,103.313189 C148.074236,103.149363 148.467249,103.042245 148.877729,103.01074 C149.28821,102.979235 149.69869,103.017041 150.082969,103.124159 C150.449782,103.237577 150.790393,103.420306 151,103.678648 Z" id="Path" fill="#141414"></path>
            <path d="M138.834933,106.476261 C139.583493,106.177589 140.06334,105.959639 140.888676,106.008072 C141.31094,106.032289 141.915547,105.92735 142.28023,106.113011 C142.644914,106.2906 143,106.573128 143,106.573128 C143,106.573128 142.414587,109.398407 138,107.097823 C138,107.097823 138.345489,106.774934 138.834933,106.476261 Z" id="Path" fill="#FFFFFF"></path>
            <path d="M148.680203,106.49784 C149.279188,106.197472 149.664975,105.974618 150.324873,106.013375 C150.659898,106.032754 151.147208,105.926171 151.431472,106.110268 C151.725888,106.284675 152,106.565665 152,106.565665 C152,106.565665 151.51269,109.385249 148,107.117954 C148,107.117954 148.284264,106.798208 148.680203,106.49784 Z" id="Path" fill="#FFFFFF"></path>
            <path d="M141.981636,107.1084 C142.055635,106.559704 141.899272,106.066045 141.63352,106.006006 C141.367124,105.945966 141.091719,106.342895 141.018364,106.89159 C140.944365,107.440285 141.100728,107.933944 141.36648,107.993984 C141.632876,108.054023 141.908281,107.657929 141.981636,107.1084 Z" id="Path" fill="#1D1E1C"></path>
            <path d="M138,108 C138.138632,107.52476 138.452865,107.096112 138.841035,106.769967 C139.229205,106.443823 139.709797,106.210862 140.208872,106.089722 C140.707948,105.968583 141.23475,105.968583 141.733826,106.099041 C142.22366,106.22018 142.695009,106.481096 143,106.881789 C142.528651,106.732694 142.09427,106.667465 141.650647,106.658146 C141.216266,106.648828 140.781885,106.704738 140.365989,106.797923 C139.950092,106.891107 139.543438,107.030883 139.155268,107.235889 C138.757856,107.431576 138.38817,107.692492 138,108 Z" id="Path" fill="#141414"></path>
            <path d="M150.979173,107.100983 C151.057856,106.552023 150.906678,106.061074 150.642337,106.005211 C150.377997,105.949348 150.099511,106.348983 150.020827,106.899017 C149.942144,107.447977 150.093322,107.938926 150.357663,107.994789 C150.622003,108.050652 150.900489,107.651017 150.979173,107.100983 Z" id="Path" fill="#1D1E1C"></path>
            <path d="M148,107 C148.028235,106.55535 148.254118,106.130912 148.555294,105.797425 C148.856471,105.474043 149.251765,105.231507 149.665882,105.100133 C150.08,104.978865 150.541176,104.958654 150.955294,105.090028 C151.369412,105.211296 151.755294,105.453832 152,105.817636 C151.190588,105.655945 150.522353,105.655945 149.863529,105.858059 C149.534118,105.959116 149.214118,106.090489 148.912941,106.282497 C148.602353,106.474505 148.310588,106.706935 148,107 Z" id="Path" fill="#141414"></path>
            <path d="M145,122.974429 C144.558541,122.99251 144.107486,123.010592 143.666027,122.99251 C143.224568,122.965388 142.773512,122.938265 142.332054,122.87498 C141.890595,122.838816 141.449136,122.730327 141.017274,122.658 C140.585413,122.54951 140.153551,122.459102 139.721689,122.32349 C138.867562,122.070347 138.042226,121.753918 137.245681,121.365163 C136.852207,121.166265 136.458733,120.967367 136.084453,120.741347 C135.710173,120.506286 135.345489,120.280265 135,120 C135.383877,120.207939 135.777351,120.406837 136.170825,120.587653 C136.564299,120.77751 136.957774,120.949286 137.370441,121.11202 C138.176583,121.43749 138.992322,121.735837 139.836852,121.979939 C140.671785,122.233082 141.516315,122.441021 142.380038,122.603755 C143.243762,122.793612 144.117083,122.87498 145,122.974429 Z" id="Path" fill="#1D1D1B"></path>
            <path d="M128.152382,129.130555 C133.346336,135.176151 141.923067,131.698257 143.418005,128 C143.485086,128.019162 144.529626,128.239524 144.663787,128.249105 C155.655419,129.360499 165.506681,133.815653 176,137.283966 L171.151033,153.657855 L157.984073,151.799146 L161.453098,210.386817 L105,211 C105,211 107.635308,190.151795 110.778513,165.624495 C112.024295,152.13448 112.886759,130.26111 128.152382,129.130555 Z" id="Path" fill="#DC692C"></path>
            <path d="M149.122217,85.9132804 C146.871369,79.0937318 133.936118,79.0937318 131.932198,87.6759604 C122.140536,85.9132804 117.021519,92.2223262 115.910341,97.3951658 C115.587435,98.9170425 115.549446,100.332966 115.739391,101.633303 C111.370657,101.642936 107.828183,105.23572 107.828183,109.676133 C107.828183,111.438813 108.388521,113.057011 109.328748,114.386245 C108.787405,115.04123 108.284051,115.763639 107.828183,116.582371 C103.668389,124.018376 106.555552,135.307233 117.021519,136.886903 C127.477989,138.466572 135.883054,123.141852 130.792529,113.201493 C128.285255,115.570997 125.331611,110.244428 126.699215,108.327634 C128.066819,106.41084 129.244477,108.327634 129.244477,108.327634 C132.739464,109.916936 132.207619,100.101795 132.207619,100.101795 C132.207619,100.101795 135.360705,102.028221 137.155685,97.7515546 C137.155685,97.7515546 147.716624,105.495788 157.736221,99.7550379 C164.935135,95.6128363 159.407737,81.4439717 149.122217,85.9132804 Z" id="Path" fill="#774D44"></path>
            <path d="M158.837768,103.653932 C158.732317,103.170244 158.367295,102.899379 157.604804,103.034812 C156.842313,103.160571 157.020768,105.801505 157.012657,106.604426 C157.012657,107.407348 157.329009,109.99024 158.083389,109.999913 C158.837768,110.009587 158.991888,109.206666 159,108.587546 C159,107.968425 158.837768,103.653932 158.837768,103.653932 Z" id="Path" fill="#1C696F"></path>
            <path d="M158.686505,109.016427 C158.686505,109.016427 173.43277,110.664613 174.84085,110.80835 C176.412885,110.971253 182.662447,111 182.662447,111 L183,97 C183,97 174.213965,99.1081451 172.352599,99.7597536 C170.491233,100.411362 163.547275,101.992471 162.245284,102.49076 C160.856492,103.017796 158.194642,103.707734 158.194642,103.707734 C157.982465,104.73306 157.924599,105.902122 158.117487,106.946612 C158.14642,107.157426 158.532195,108.997262 158.686505,109.016427 Z" id="Path" fill="#E89133"></path>
            <path d="M187,104.997697 C187,105.122212 187,105.246727 186.991031,105.38082 C186.85649,106.022551 186.641225,106.654704 186.42596,107.248545 C186.121001,108.014792 185.762226,108.752304 185.322727,109.317411 C184.892196,109.92083 184.40785,110.342265 183.860718,110.62003 C183.313586,110.897794 182.730577,111.031887 182.147567,110.993575 C182.013027,110.983997 181.878486,110.955262 181.752915,110.926528 C181.690129,110.91695 181.636313,110.897794 181.582497,110.888216 C181.268568,110.648764 180.96361,110.380578 180.676589,110.083657 C180.488233,109.882517 180.299876,109.6718 180.120488,109.451504 C179.824499,109.097115 179.564387,108.704414 179.322214,108.2734 C178.918592,107.583778 178.613633,106.817532 178.389398,105.965083 C178.165164,105.112634 178.039593,104.202716 178.003715,103.28322 C177.994746,103.015034 178.003715,102.73727 178.012685,102.459506 C178.245888,100.917435 178.828898,99.5477692 179.591295,98.6186955 C179.672019,98.5133366 179.752744,98.4175558 179.842437,98.3313531 C180.299876,97.8237149 180.81113,97.4501698 181.358262,97.2298739 C181.708068,97.0862027 182.084782,97.0095781 182.461495,97 C182.524281,97.0095781 182.587067,97.0191562 182.649852,97.0383123 C183.869688,97.354389 184.954982,98.4941805 185.717379,99.9308924 C186.479776,101.358026 186.955153,103.129971 187,104.997697 Z" id="Path" fill="#ACDAF4"></path>
            <path d="M177.864231,98 C177.864231,98 169.77646,100.100437 169.327648,100.166667 C169.327648,100.166667 167.743067,101.141194 168.036169,105.332606 C168.329271,109.514556 170.197793,110.413392 170.197793,110.413392 L179,111 C179,111 177.039883,103.743086 177.864231,98 Z" id="Path" fill="#E89133"></path>
            <path d="M141.792036,104.648725 C141.634513,104.159486 141.093024,103.901524 139.931286,104.034953 C138.779393,104.168381 139.025524,106.801373 139.015679,107.61084 C139.005834,108.411412 139.478405,110.991032 140.610608,110.999927 C141.74281,111.008823 141.988941,110.199356 141.998786,109.585584 C142.018477,108.971812 141.792036,104.648725 141.792036,104.648725 Z" id="Path" fill="#E89133"></path>
            <path d="M140.842412,110.018868 C140.842412,110.018868 159.073,111.698113 160.816545,111.839623 C162.751689,112 170.492264,112 170.492264,112 L171,97 C171,97 160.117211,99.3113208 157.80845,100.018868 C155.49969,100.726415 146.906501,102.462264 145.277915,103.009434 C143.563109,103.584906 140.258037,104.339623 140.258037,104.339623 C139.980219,105.443396 139.90358,106.688679 140.143078,107.811321 C140.181398,108.018868 140.650814,110 140.842412,110.018868 Z" id="Path" fill="#F3BB3A"></path>
            <path d="M178,105.539702 C178,105.671808 177.990388,105.81335 177.990388,105.945456 C177.798144,106.64373 177.509778,107.313695 177.2118,107.955352 C176.798476,108.785732 176.317866,109.568932 175.731522,110.191716 C175.15479,110.833374 174.501161,111.286308 173.770635,111.588264 C173.040108,111.890221 172.26152,112.031763 171.482932,111.994018 C171.300301,111.984582 171.117669,111.96571 170.935037,111.927965 C170.867752,111.927965 170.790854,111.909093 170.723569,111.899657 C170.310245,111.644881 169.906532,111.352361 169.522045,111.040969 C169.272128,110.833374 169.031823,110.606906 168.791518,110.361567 C168.40703,109.984121 168.041767,109.568932 167.724564,109.106561 C167.195894,108.370542 166.792181,107.540163 166.503816,106.634294 C166.205838,105.718989 166.032818,104.747067 166.003982,103.765709 C165.994369,103.473188 166.003982,103.171232 166.013594,102.878712 C166.340408,101.217952 167.128608,99.7459152 168.137889,98.7456849 C168.253235,98.6324513 168.368581,98.5192177 168.483928,98.4342925 C169.099108,97.8775605 169.781574,97.4812429 170.512101,97.2547756 C170.99271,97.0943613 171.482932,97.0094361 171.992379,97 C172.069276,97.0094361 172.155786,97.0188723 172.242296,97.0283084 C173.866756,97.3680093 175.308586,98.5852706 176.308254,100.113924 C177.327146,101.642578 177.951939,103.539241 178,105.539702 Z" id="Path" fill="#ACDAF4"></path>
            <path d="M164.611522,98 C164.611522,98 154.282368,100.31459 153.71009,100.389557 C153.71009,100.389557 151.693044,101.457829 152.040163,105.965189 C152.387283,110.472549 154.770212,111.428372 154.770212,111.428372 L166,112 C165.981237,112.009362 163.523255,104.203477 164.611522,98 Z" id="Path" fill="#E89133"></path>
            <path d="M162.428427,106.995206 C161.989207,105.983978 160.910255,106.146156 161.053478,107.262322 C161.779145,109.90487 162.180172,112.375699 162.180172,112.375699 C161.80779,110.68714 160.480583,106.432353 160.031816,105.201708 C159.630789,104.095082 158.37042,104.543456 158.609126,105.650082 C159.201118,108.120912 160.031816,112.566497 160.031816,112.566497 C158.97196,109.03674 158.379968,106.251095 157.845266,104.734254 C157.415595,103.532229 155.840133,103.780266 156.24116,105.669162 C156.689928,107.806096 157.644753,112.929012 157.644753,112.929012 C156.584897,109.666373 156.279353,107.901494 155.620524,105.926739 C155.25769,104.839192 153.959128,104.781953 154.05461,106.260635 C154.589313,109.485115 155.448655,113.520485 155.830585,116.086713 C155.830585,116.086713 155.830585,116.086713 153.911387,114.665271 C152.488697,113.615884 151.782127,113.224749 151.562517,113.92116 C151.276069,114.798829 153.56765,117.317358 153.56765,117.317358 C153.758615,117.574935 153.968676,117.832512 154.178738,118.061469 C156.346191,120.427359 158.083972,123.947576 158.322679,127.143436 C159.840851,146.986391 157.644753,157.222684 154.27422,158.787225 C151.638903,160.017869 142.147942,154.561057 134.413858,147.692342 L129,158.815844 C139.149791,166.753026 148.32566,169.68177 154.073707,169.987046 C157.052761,170.139684 159.95543,168.937659 161.922369,166.686247 C165.388384,162.717656 166.954297,157.489801 167.699061,149.314122 C168.157377,144.353383 168.080991,139.364025 167.546289,134.403286 L166.782429,127.296074 C165.08284,115.209044 162.944032,107.662997 162.428427,106.995206 Z" id="Path" fill="#F9DFCD"></path>
            <path d="M102.059806,192.670246 L101.586537,189.52893 L101.151901,186.378066 C100.862144,184.27749 100.572387,182.186461 100.311606,180.076337 C99.7514095,175.875185 99.2877984,171.664484 98.8917973,167.453784 C98.1287707,159.022835 97.636184,150.563241 97.9838923,142.103648 C98.3412592,133.653603 99.8866294,125.260846 102.175709,117.106791 C103.296102,113.020216 104.628984,108.990929 106.106745,105.01893 C106.802161,103.013835 107.623139,101.05648 108.395824,99.0895764 C109.149192,97.1131251 110.03778,95.1840323 110.858758,93.2266772 C111.660419,91.259774 112.568324,89.3501593 113.447253,87.4214484 C114.306865,85.4831895 115.272722,83.5926709 116.190285,81.6830561 C117.088532,79.7638933 118.083364,77.8924709 119.068537,76.0115004 C120.024735,74.1209818 121.077519,72.2782036 122.110985,70.4258773 C126.264168,63.0261202 130.842327,55.8555169 136,49.0763846 L135.903414,49 C130.388374,55.5117862 125.617044,62.6251011 121.309324,69.9771178 C120.246882,71.8294441 119.174782,73.6626743 118.189608,75.5531929 C117.185117,77.4341634 116.16131,79.3055858 115.243746,81.2247486 C114.287548,83.1343633 113.341009,85.03443 112.500714,86.9917851 C111.631443,88.9395921 110.733197,90.868303 109.941194,92.8447543 C109.139534,94.8212055 108.318556,96.7789425 107.603822,98.784038 C106.87943,100.789133 106.097086,102.765585 105.459621,104.799324 C104.802838,106.823516 104.088105,108.828611 103.518249,110.871899 C102.919418,112.915187 102.252978,114.929831 101.750732,116.992214 C99.5678968,125.19401 97.858331,133.558122 97.2981342,142.055908 C96.7186204,150.544145 97.0470116,159.070575 97.7424282,167.530168 C98.4378448,175.99931 99.4906283,184.439807 100.813852,192.823015 C101.692781,198.570956 102.687613,204.290252 103.759714,210 L104.851131,210 C103.885275,204.25206 102.948394,198.465927 102.059806,192.670246 Z" id="Path" fill="#267F24"></path>
            <path d="M91.7555232,183.400359 C89.7373734,177.990425 87.5757532,172.628366 85.1941451,167.352484 C82.8221017,162.076601 80.1631176,156.925194 77.1789339,151.955715 C74.204315,146.986236 70.9427553,142.179533 67.3464315,137.631358 C60.1346544,128.563734 51.6507733,120.463196 42.0669528,114 L42,114.095751 C51.1247153,121.162178 59.2929615,129.348893 66.3517036,138.416517 C69.8906393,142.935966 73.2000224,147.646918 76.2224648,152.539797 C79.2449072,157.432675 82.0282323,162.46918 84.6011342,167.630162 C87.1549068,172.791143 89.4313033,178.105326 91.3825002,183.534411 C93.3241325,188.963495 94.921436,194.507481 96.4036761,200.080192 C97.3027571,203.374028 98.1444499,206.677439 98.947884,210 L100,210 C99.2061306,206.581688 98.3261791,203.182525 97.3505806,199.812089 C95.7150184,194.268103 93.7832377,188.810293 91.7555232,183.400359 Z" id="Path" fill="#267F24"></path>
            <path d="M142.803364,138.840912 C145.209198,135.00494 146.460232,128.252669 142.148977,125.212661 C136.509703,121.232839 129.782991,127.94675 127.001847,132.415658 C124.114846,137.038005 122.093946,142.417957 117.850055,145.841562 C114.34716,148.670592 109.420013,150.108122 107.370242,154.107124 C104.935538,158.84455 107.784046,164.474799 107.918772,169.78762 C108.005382,172.933118 107.110412,176.000937 106.513765,179.089854 C105.917118,182.177812 105.628418,185.476748 106.850582,188.371948 C108.072746,191.268107 111.219576,193.560101 114.28942,192.879216 C117.330395,192.207921 119.139582,189.062423 119.986435,186.079955 C120.833289,183.087896 121.131612,179.856089 122.854189,177.266808 C126.49181,171.790957 135.268292,170.927863 137.808853,164.867027 C139.887493,159.890811 136.528949,154.203023 137.433543,148.890201 C138.08793,145.121358 140.763217,142.082309 142.803364,138.840912 Z" id="Path" fill="#80D37E"></path>
            <path d="M109.254218,207.422791 C109.468116,204.941389 109.613955,202.450406 109.954246,199.978584 L110.401487,196.261271 C110.469545,195.638526 110.576494,195.025361 110.683443,194.412196 L111.004289,192.572701 C111.237632,191.346371 111.441807,190.11046 111.684873,188.893711 C111.937661,187.667381 112.26823,186.460212 112.550186,185.253043 C112.841864,184.036294 113.143266,182.829125 113.454389,181.621957 C113.794681,180.424369 114.183586,179.236362 114.543323,178.038774 L115.651701,174.465171 L116.925365,170.939472 L118.189305,167.423354 L119.608808,163.96472 L121.038033,160.506087 C121.543609,159.365983 122.107521,158.245041 122.632542,157.124098 L124.227052,153.74211 C124.761796,152.611587 125.393766,151.538548 125.967401,150.427187 C130.5662,141.565036 136.010866,133.143598 142,125.076646 L141.902774,125 C135.310838,132.607078 129.56477,140.961452 124.829854,149.842764 C124.246497,150.954125 123.614527,152.046326 123.079783,153.186429 L121.494996,156.616321 C120.979697,157.766005 120.43523,158.896528 119.939377,160.055794 L118.558765,163.562331 C118.101802,164.731177 117.625393,165.900023 117.187875,167.078449 L116.011438,170.661632 C115.622534,171.85922 115.223906,173.047227 114.864169,174.244815 L113.90163,177.885482 C113.580784,179.102232 113.240492,180.29982 112.939091,181.516569 C112.67658,182.742899 112.404347,183.959648 112.122391,185.185978 C111.850157,186.412308 111.539033,187.619477 111.305691,188.845807 C111.08207,190.081718 110.839005,191.308048 110.605662,192.534378 C110.382042,193.760708 110.080641,194.987038 109.895911,196.222949 L109.273663,199.930681 C108.8167,202.392922 108.544467,204.883904 108.243065,207.374887 C108.155562,208.246731 108.077781,209.128156 108,210 L109.04032,210 C109.118101,209.108995 109.18616,208.265893 109.254218,207.422791 Z" id="Path" fill="#267F24"></path>
            <path d="M142,211 C142,211 123.736467,193.928687 110.992452,197.529743 C98.2484359,201.130798 88.8857745,199.628753 71.7011003,193.476148 C54.5260587,187.323543 41.9072677,201.814421 40,211 L142,211 Z" id="Path" fill="#44A942"></path>
            <path d="M299.030511,79.067232 C293.194936,87.3463681 287.561918,95.7601603 282.440116,104.481106 C279.884037,108.84158 277.395478,113.240471 275.234868,117.812244 C274.144918,120.088527 273.18036,122.432041 272.35084,124.813973 C271.52132,127.195906 270.865421,129.64507 270.547117,132.142257 C270.228813,134.620235 270.238458,137.223073 271.222307,139.50896 C271.463447,140.075629 271.772105,140.613485 272.138637,141.093713 C272.514815,141.573941 272.93922,142.044565 273.382917,142.486375 C274.27031,143.360391 275.254159,144.138361 276.276591,144.849099 C280.42419,147.663236 285.227688,149.411268 290.069769,150.775116 C299.802158,153.512417 309.901079,154.770616 320,155.903954 L319.990354,156 C309.843205,155.577399 299.638183,154.520897 289.790047,151.754782 C287.34007,151.034439 284.919029,150.198842 282.565508,149.180758 C280.221633,148.162674 277.925985,146.971708 275.852185,145.434977 C274.810463,144.676216 273.845905,143.82141 272.958512,142.880162 C272.524461,142.409539 272.109701,141.910101 271.723878,141.391455 C271.338054,140.863204 271.029396,140.277325 270.788256,139.672237 C269.823698,137.232677 269.891218,134.591422 270.219167,132.08463 C270.961877,127.042233 272.804182,122.259159 274.791172,117.600944 C276.816743,112.942729 279.150973,108.428583 281.707052,104.048901 C286.877082,95.3181581 292.616201,86.9237672 298.953347,79 L299.030511,79.067232 Z" id="Path" fill="#58B756"></path>
            <path d="M294,210.193364 C294,210.193364 298.044375,163.446867 296.37346,135.963614 C294.702544,108.480362 292.93669,82.8980823 304.946396,80.1420748 C316.956103,77.3956701 315.892793,115.010275 313.424395,145.864115 C310.955997,176.717955 304.500186,211 304.500186,211 L294,210.193364 Z" id="Path" fill="#58B756"></path>
            <path d="M305.517413,81 C306.164179,86.0153377 306.492537,91.0689605 306.721393,96.1227747 C306.840796,98.6495861 306.880597,101.176397 306.960199,103.703209 C307.0199,106.23002 306.9801,108.756832 307,111.283643 L306.820896,118.864077 C306.741294,121.390888 306.631841,123.9177 306.572139,126.43494 L306.144279,141.586237 L305.905473,149.166671 L305.517413,156.737534 C305.268657,161.781586 304.870647,166.825637 304.472637,171.860117 C304.084577,176.904169 303.517413,181.929078 303.00995,186.953987 C302.422886,191.978896 301.776119,196.994234 301.099502,202 L301,201.990429 L303.437811,171.783547 C304.19403,161.714587 304.99005,151.645626 305.597015,141.567094 C305.766169,139.049854 305.905473,136.523043 305.995025,134.005803 C306.094527,131.478991 306.223881,128.961751 306.223881,126.43494 C306.333333,121.390888 306.223881,116.337266 306.174129,111.293214 C306.054726,101.205111 305.975124,91.1072455 305.41791,81.0191425 L305.517413,81 Z" id="Path" fill="#267F24"></path>
            <path d="M391.730394,82.0474638 C386.425015,90.3251569 381.462533,98.8118807 377.090596,107.59269 C374.918915,111.987842 372.832958,116.43995 371.223247,121.07242 C369.632585,125.695398 368.432446,130.527216 368.422921,135.425484 C368.441971,137.855632 368.756293,140.314259 369.69926,142.535567 C370.613652,144.747382 372.128114,146.712384 374.137871,148.012893 C378.195486,150.670868 382.919845,152.208697 387.672779,153.300365 C397.245321,155.350803 407.170285,155.692542 416.990475,155.122976 L417,155.217904 C412.104192,155.863412 407.151235,156.091238 402.207803,155.967832 C397.264371,155.844426 392.311414,155.350803 387.453706,154.27812 C382.615048,153.205437 377.833539,151.515725 373.67115,148.705865 C371.566144,147.272458 369.965958,145.136585 369.09919,142.782379 C368.203848,140.428172 367.965725,137.903096 368.003825,135.434977 C368.080024,132.957365 368.413396,130.508231 368.937266,128.097068 C369.461137,125.685905 370.099306,123.312713 370.88035,120.968 C372.385287,116.278572 374.242645,111.693566 376.366702,107.250951 C380.68149,98.3847062 385.81542,89.9359534 391.654195,82 L391.730394,82.0474638 Z" id="Path" fill="#267F24"></path>
            <path d="M381,211 C381,211 388.010509,164.66267 387.931629,137.186119 C387.852748,109.709568 387.556946,84.1110444 400.177835,82.0792938 C412.798723,80.0475433 409.43644,117.462805 405.019129,148.063651 C400.601818,178.664498 391.481254,211 391.481254,211 L381,211 Z" id="Path" fill="#267F24"></path>
            <path d="M398.995848,83.0191593 C399.042021,92.7616568 398.700338,102.50425 398.109319,112.227588 L396.991922,126.798226 C396.594831,131.655106 396.327026,136.511985 395.966873,141.368864 C395.32968,151.092202 394.396978,160.796381 393.057949,170.443082 C392.439226,175.280802 391.561931,180.070624 390.675402,184.860446 L389.087037,191.987701 C388.449845,194.334714 387.757244,196.672147 387.092347,199 L387,198.971261 C389.401016,189.554471 390.776984,179.91735 392.106777,170.299388 L392.596215,166.687862 L393.030245,163.066757 C393.31652,160.652687 393.648969,158.248196 393.90754,155.824546 C394.424682,150.986826 394.978762,146.158686 395.458966,141.311386 C395.708302,138.887736 395.957638,136.473666 396.133097,134.040437 C396.327026,131.616787 396.548658,129.193137 396.668709,126.759908 C396.982688,121.903028 397.139677,117.036569 397.34284,112.170111 C397.795339,102.446772 398.321716,92.7233382 398.903501,83 L398.995848,83.0191593 Z" id="Path" fill="#80D37E"></path>
            <path d="M214,211 C214,211 224.561013,191.292592 258.40796,192.736006 C292.254906,194.179419 308.867198,198.759852 331.731839,191.995053 C354.596481,185.230254 387.198702,177.695635 410.800604,192.736006 C423.362752,201.531206 423,210.980754 423,210.980754 L214,211 Z" id="Path" fill="#80D37E"></path>
            <polygon id="Path" fill="#1D1D1B" points="23 211.395 29 211.275 29 211.725 23 211.595"></polygon>
            <polygon id="Path" fill="#1D1D1B" points="34 211.175 40 211.085 40 211.915 34 211.815"></polygon>
            <polygon id="Path" fill="#1D1D1B" points="45 211.053571 51 211 51 212 45 211.946429"></polygon>
            <polygon id="Path" fill="#1D1D1B" points="56 211.044118 62 211 62 212 56 211.955882"></polygon>
            <polygon id="Path" fill="#1D1D1B" points="68 211.019481 74 211 74 212 68 211.987013"></polygon>
            <polygon id="Path" fill="#1D1D1B" points="80 210.036585 86 210 86 212 80 211.97561"></polygon>
            <polygon id="Path" fill="#1D1D1B" points="91 210.034483 97 210 97 212 91 211.977011"></polygon>
            <polygon id="Path" fill="#1D1D1B" points="103 210 109 210.011173 109 211.988827 103 212"></polygon>
            <polygon id="Path" fill="#1D1D1B" points="114 210 120 210.023121 120 211.976879 114 212"></polygon>
            <polygon id="Path" fill="#1D1D1B" points="126 210 132 210.072727 132 211.915152 126 212"></polygon>
            <polygon id="Path" fill="#1D1D1B" points="137 211 143 211.043165 143 211.956835 137 212"></polygon>
            <polygon id="Path" fill="#1D1D1B" points="149 211 155 211.053097 155 211.938053 149 212"></polygon>
            <polygon id="Path" fill="#1D1D1B" points="160 211.065 166 211.115 166 211.885 160 211.935"></polygon>
            <polygon id="Path" fill="#1D1D1B" points="172 211.14 178 211.17 178 211.84 172 211.86"></polygon>
            <polygon id="Path" fill="#1D1D1B" points="189 211.19 183 211.19 183 211.81 189 211.81"></polygon>
            <polygon id="Path" fill="#1D1D1B" points="195 211.17 201 211.15 201 211.85 195 211.84"></polygon>
            <polygon id="Path" fill="#1D1D1B" points="206 211.125 212 211.085 212 211.915 206 211.865"></polygon>
            <polygon id="Path" fill="#1D1D1B" points="218 211.047619 224 211 224 212 218 211.942857"></polygon>
            <polygon id="Path" fill="#1D1D1B" points="230 211.046512 236 211 236 212 230 211.945736"></polygon>
            <polygon id="Path" fill="#1D1D1B" points="241 211.039474 247 211 247 212 241 211.967105"></polygon>
            <polygon id="Path" fill="#1D1D1B" points="252 210.047619 258 210 258 212 252 211.952381"></polygon>
            <polygon id="Path" fill="#1D1D1B" points="264 210.032967 270 210 270 212 264 211.967033"></polygon>
            <polygon id="Path" fill="#1D1D1B" points="276 210.020942 282 210 282 212 276 211.979058"></polygon>
            <polygon id="Path" fill="#1D1D1B" points="287 210.0199 293 210 293 212 287 211.970149"></polygon>
            <polygon id="Path" fill="#1D1D1B" points="298 210.028571 304 210 304 212 298 211.980952"></polygon>
            <polygon id="Path" fill="#1D1D1B" points="311 210 317 210.009434 317 211.990566 311 212"></polygon>
            <polygon id="Path" fill="#1D1D1B" points="322 210 328 210.009615 328 212 322 212"></polygon>
            <polygon id="Path" fill="#1D1D1B" points="333 210 339 210.009756 339 211.990244 333 212"></polygon>
            <polygon id="Path" fill="#1D1D1B" points="344 210 350 210.00995 350 211.9801 344 212"></polygon>
            <polygon id="Path" fill="#1D1D1B" points="357 210 363 210.042328 363 211.957672 357 212"></polygon>
            <polygon id="Path" fill="#1D1D1B" points="368 210 374 210.046243 374 211.953757 368 212"></polygon>
            <polygon id="Path" fill="#1D1D1B" points="379 211 385 211.031847 385 211.968153 379 212"></polygon>
            <polygon id="Path" fill="#1D1D1B" points="391 211 397 211.052239 397 211.955224 391 212"></polygon>
            <polygon id="Path" fill="#1D1D1B" points="402 211 408 211.056075 408 211.934579 402 212"></polygon>
            <polygon id="Path" fill="#1D1D1B" points="414 211.12 420 211.22 420 211.79 414 211.88"></polygon>
            <polygon id="Path" fill="#1D1D1B" points="426 211.315 431 211.395 431 211.595 426 211.685"></polygon>
            <g id="Group" opacity="0.4" transform="translate(180.000000, 97.000000)" fill="#F2FAFF">
                <path d="M2.865,11.2513333 C2.555,12.0633333 2.465,12.81 2.535,13.51 C2.465,13.5006667 2.405,13.482 2.345,13.4726667 C1.995,13.2393333 1.655,12.978 1.335,12.6886667 C1.125,12.4926667 0.915,12.2873333 0.715,12.0726667 C0.815,11.1486667 1.055,10.262 1.415,9.48733333 C1.665,8.96466667 2.035,8.582 2.285,8.08733333 C2.815,7.00466667 2.665,6.77133333 1.965,6.30466667 C0.655,5.446 -0.275,3.85933333 0.225,1.806 C0.275,1.60066667 0.335,1.414 0.405,1.23666667 C0.915,0.742 1.485,0.378 2.095,0.163333333 C1.925,0.443333333 1.795,0.751333333 1.715,1.106 C1.385,2.54333333 1.795,3.38333333 2.715,4.046 C3.575,4.67133333 4.375,5.054 4.595,6.49133333 C4.935,8.666 3.495,9.60866667 2.865,11.2513333 Z" id="Path"></path>
            </g>
            <g id="Group" opacity="0.4" transform="translate(167.000000, 97.000000)" fill="#F2FAFF">
                <path d="M3.695,12.9082353 C3.305,13.7929412 3.185,14.6117647 3.255,15.3835294 C3.185,15.3835294 3.105,15.3647059 3.035,15.3552941 C2.605,15.1011765 2.185,14.8094118 1.785,14.4988235 C1.525,14.2917647 1.275,14.0658824 1.025,13.8211765 C1.145,12.8047059 1.455,11.8352941 1.915,10.9788235 C2.215,10.4047059 2.695,9.99058824 3.005,9.43529412 C3.665,8.24941176 3.485,7.98588235 2.615,7.48705882 C0.985,6.54588235 -0.165,4.81411765 0.475,2.55529412 C0.535,2.32941176 0.615,2.12235294 0.705,1.92470588 C1.345,1.36941176 2.055,0.974117647 2.815,0.748235294 C2.605,1.04941176 2.435,1.38823529 2.335,1.78352941 C1.915,3.35529412 2.425,4.27764706 3.565,5.00235294 C4.625,5.68 5.615,6.09411765 5.895,7.67529412 C6.305,10.0564706 4.495,11.1011765 3.695,12.9082353 Z" id="Path"></path>
            </g>
            <path d="M186.812791,99.1871435 C185.850941,97.5359405 184.510181,96.4007384 183.130557,96.0629923 C183.072263,96.0536105 183.013969,96.0442287 182.955676,96.0348468 L182.800225,96.0160831 C182.800225,96.0160831 182.071551,95.8190646 178.777943,96.8041573 C177.835525,97.0856124 175.688365,99.4592167 176.038128,104.084462 C176.397607,108.709706 178.894531,110.576692 179.244295,110.801856 C179.603774,111.02702 182.858519,110.998874 182.858519,110.998874 C183.431743,110.980111 184.004966,110.839383 184.558759,110.586073 C185.258286,110.267091 185.841225,109.797999 186.336724,109.160034 C188.124405,107.049122 188.746207,102.527077 186.812791,99.1871435 Z M185.462315,108.306287 C185.073689,108.803525 184.617053,109.169416 184.092407,109.413344 C183.567762,109.657272 183.023685,109.760472 182.489324,109.732326 C182.36302,109.722945 182.227001,109.704181 182.071551,109.676035 C181.809228,109.488399 181.527474,109.253853 181.255436,109.009925 C180.682212,108.465779 180.235292,107.921632 179.875812,107.34934 C179.487186,106.748903 179.176285,106.045265 178.952825,105.275955 C178.719649,104.478499 178.593346,103.652897 178.564199,102.817914 C178.554483,102.602132 178.554483,102.376968 178.573914,102.114276 C178.797375,100.791437 179.360883,99.5530351 180.118704,98.7086699 C180.886241,97.8361592 181.799512,97.3576856 182.771078,97.3201583 C182.780794,97.3201583 182.780794,97.3201583 182.790509,97.3201583 C182.800225,97.3201583 182.819656,97.3201583 182.829372,97.3295401 C182.858519,97.3295401 182.87795,97.3389219 182.907097,97.3389219 C183.985535,97.6016133 185.054257,98.530415 185.850941,99.8907811 C187.454024,102.667804 186.94881,106.551884 185.462315,108.306287 Z" id="Shape" fill="#D14026"></path>
            <path d="M176.638728,100.370807 C175.530461,98.6157132 173.967986,97.4119578 172.360091,97.0627768 L172.351007,97.0627768 C172.287418,97.0443989 172.214745,97.0443989 172.151156,97.0352099 L171.969473,97.016832 C171.969473,97.016832 171.124646,96.8054856 167.272965,97.8805954 C166.173783,98.1838315 163.657472,100.729177 164.039007,105.663655 C164.429625,110.588944 167.32747,112.564573 167.736257,112.803486 C168.145044,113.0424 171.94222,112.996455 171.94222,112.996455 C172.614448,112.968888 173.277591,112.821864 173.922566,112.546195 C174.731055,112.197014 175.421451,111.691621 176.002837,111.020826 C178.128529,108.741961 178.882513,103.91775 176.638728,100.370807 Z M175.012664,110.101929 C174.549372,110.634889 174.031575,111.020826 173.404769,111.287306 C172.796131,111.544597 172.16024,111.664054 171.533433,111.636487 C171.388087,111.627298 171.224572,111.60892 171.042889,111.572164 C170.734028,111.370007 170.416082,111.131093 170.089053,110.864613 C169.42591,110.285708 168.908113,109.715992 168.499326,109.100331 C168.045118,108.457103 167.690836,107.712796 167.43648,106.894977 C167.17304,106.049592 167.027693,105.16745 166.991356,104.27612 C166.982272,104.046396 166.991356,103.807483 167.000441,103.522624 C167.272965,102.107523 167.936108,100.7935 168.817271,99.8837913 C169.707518,98.9465162 170.779449,98.4319337 171.905884,98.3951778 C171.914968,98.3951778 171.924052,98.3951778 171.933136,98.3951778 C171.951304,98.3951778 171.969473,98.3951778 171.978557,98.4043668 C172.005809,98.4043668 172.042146,98.4135558 172.069398,98.4135558 C173.323012,98.680036 174.567541,99.672445 175.48504,101.115114 C177.374544,104.073963 176.756822,108.218189 175.012664,110.101929 Z" id="Shape" fill="#DC692C"></path>
        </g>
    </g>
</svg>